<svg id="Layer_1" data-name="Layer 1" xmlns="http://www.w3.org/2000/svg" xmlns:xlink="http://www.w3.org/1999/xlink" viewBox="0 0 501 190"><defs><style>.cls-1{fill:none;}.cls-2{fill:#1762aa;}.cls-3{fill:#51b748;}.cls-4{fill:url(#linear-gradient);}.cls-5{fill:url(#linear-gradient-2);}.cls-6{fill:url(#linear-gradient-3);}</style><linearGradient id="linear-gradient" x1="93.72" y1="99.61" x2="448" y2="99.61" gradientUnits="userSpaceOnUse"><stop offset="0.22" stop-color="#1762aa"/><stop offset="0.45" stop-color="#348d79"/><stop offset="0.65" stop-color="#49ab55"/><stop offset="0.75" stop-color="#51b748"/></linearGradient><linearGradient id="linear-gradient-2" x1="93.72" y1="126.49" y2="126.49" xlink:href="#linear-gradient"/><linearGradient id="linear-gradient-3" x1="93.72" y1="126.59" y2="126.59" xlink:href="#linear-gradient"/></defs><title>idea</title><path class="cls-1" d="M300.64,126.74l-.59-.08Z"/><path class="cls-1" d="M297.56,126.16c.55.14,1.11.26,1.67.36C298.69,126.42,298.14,126.31,297.56,126.16Z"/><path class="cls-1" d="M185.12,88.11S173,86.6,170.35,100.31l26.48.15S196.53,88.89,185.12,88.11Z"/><rect class="cls-2" x="73.73" y="80.36" width="14.91" height="54.78"/><path class="cls-3" d="M76.48,51.68a8.34,8.34,0,1,0,11.38,3A8.33,8.33,0,0,0,76.48,51.68Z"/><path class="cls-3" d="M246.08,114.17a8.33,8.33,0,1,0,11.39,3A8.34,8.34,0,0,0,246.08,114.17Z"/><path class="cls-3" d="M361.73,114.17a8.33,8.33,0,1,0,11.38,3A8.33,8.33,0,0,0,361.73,114.17Z"/><path class="cls-2" d="M152.4,97.56v-40H138V84.17C141.6,85.69,152.4,97.56,152.4,97.56Z"/><path class="cls-2" d="M173.55,117.79c-2.59-2.44-3.2-7-3.2-7l39.41-.15c2.9-10.66-2.88-33.92-26.16-32.56s-26.93,23.59-26.93,23.59C160.62,108.22,173.55,117.79,173.55,117.79Zm11.57-29.68c11.41.78,11.71,12.35,11.71,12.35l-26.48-.15C173,86.6,185.12,88.11,185.12,88.11Z"/><path class="cls-2" d="M300.05,126.66l.59.08a21.13,21.13,0,0,0,9.3-.74,11.7,11.7,0,0,0,3.9-2.12,8.71,8.71,0,0,1-3.35-7.91l-.3-24.19h14V80.36h-14L310,66.82,296.5,72.3l-.31,8.37L289,80.52v11.1h7.3s-.3,25.26-.15,27.7a45.9,45.9,0,0,0,1.37,6.84c.58.15,1.13.26,1.67.36Z"/><path class="cls-4" d="M446.68,127.08a4.94,4.94,0,0,0-3.27-1.9,60.55,60.55,0,0,0-6.93.68c-14.3,3.35-20.08-9.74-20.08-9.74L399.05,89.8c-10.65-17.35-18.71-23.43-18.71-23.43-18.42-14.15-32.87,6.23-32.87,6.23-4,3.5-11.19,18.2-18.11,30.13-5.4,9.32-10.42,16.82-10.42,16.82a18.5,18.5,0,0,1-9,6.45,19.88,19.88,0,0,1-9.3.74l-.59-.08c-.27,0-.54-.08-.82-.14-.56-.1-1.12-.22-1.67-.36-7.3-1.82-11.87-10.49-11.87-10.49l-7-12.56L268.35,84.78c-11.26-17.2-23.59-10.2-25.87-8.52s-7.15,5.47-16.89,25.56S206.83,124,192.22,125.3c-15.7,1.4-28.61-9.63-36.93-21.2A79.62,79.62,0,0,0,137,85.94c-25-13.39-39.76,8.32-39.76,8.32-8.93,17-.81,38.75,22.11,42s31-16.44,31-16.44l-13-14.4c1,3.86.61,6.29-1.83,12.38s-12.68,9.43-19.27,5.37-7.41-7.1-8.12-14.2,5-12.17,5-12.17c13.5-9.64,22.52,3.35,22.52,3.35S150,118.91,165,129.87s34.39,6.9,47.27,2.13,21.1-21.51,21.1-21.51,4.26-7.81,7.71-14.81a33.11,33.11,0,0,1,7.71-10.45c4.16-3.24,8.82,3.45,10.35,5.58S269.72,109.07,274,117a64.93,64.93,0,0,0,10.6,14c11.87,10.66,28.35,5.63,28.35,5.63,14.3-4.87,20.85-19.78,26-29.21S353.4,82.8,353.4,82.8C365.58,63.47,375,76.1,379,80.06s26.62,40.55,32.1,47.78,12,8.67,12,8.67a42.09,42.09,0,0,0,22-1.14C449.1,133,448.29,129.19,446.68,127.08Z"/><path class="cls-2" d="M300.64,126.74a19.88,19.88,0,0,0,9.3-.74A21.13,21.13,0,0,1,300.64,126.74Z"/><path class="cls-5" d="M300.64,126.74a19.88,19.88,0,0,0,9.3-.74A21.13,21.13,0,0,1,300.64,126.74Z"/><path class="cls-2" d="M300.05,126.66l-.82-.14C299.51,126.58,299.78,126.62,300.05,126.66Z"/><path class="cls-6" d="M300.05,126.66l-.82-.14C299.51,126.58,299.78,126.62,300.05,126.66Z"/></svg>